<mxfile host="65bd71144e" scale="2" border="0">
    <diagram id="j_Uz_649cstQB5dtHdHN" name="Page-1">
        <mxGraphModel dx="726" dy="691" grid="1" gridSize="10" guides="1" tooltips="1" connect="1" arrows="1" fold="1" page="1" pageScale="1" pageWidth="827" pageHeight="1169" math="0" shadow="0">
            <root>
                <mxCell id="0"/>
                <mxCell id="1" parent="0"/>
                <mxCell id="lSzMmfJVvKyT_ffGYAdH-124" value="" style="rounded=1;whiteSpace=wrap;html=1;labelBackgroundColor=none;strokeWidth=0.5;fontSize=4;fontColor=#000000;fillColor=none;arcSize=2;" vertex="1" parent="1">
                    <mxGeometry x="28.75" y="170" width="570" height="254" as="geometry"/>
                </mxCell>
                <mxCell id="lSzMmfJVvKyT_ffGYAdH-122" value="" style="rounded=1;whiteSpace=wrap;html=1;strokeWidth=1;fontSize=4;fillColor=#cce5ff;strokeColor=#36393d;" vertex="1" parent="1">
                    <mxGeometry x="431.25" y="200" width="147.5" height="209.88" as="geometry"/>
                </mxCell>
                <mxCell id="lSzMmfJVvKyT_ffGYAdH-121" value="" style="rounded=1;whiteSpace=wrap;html=1;strokeWidth=1;fontSize=4;fillColor=#e1d5e7;strokeColor=#9673a6;" vertex="1" parent="1">
                    <mxGeometry x="236.25" y="200" width="152.5" height="209.88" as="geometry"/>
                </mxCell>
                <mxCell id="lSzMmfJVvKyT_ffGYAdH-120" value="" style="rounded=1;whiteSpace=wrap;html=1;strokeWidth=1;fontSize=4;fillColor=#fff2cc;strokeColor=#d6b656;" vertex="1" parent="1">
                    <mxGeometry x="48.75" y="200" width="150" height="210" as="geometry"/>
                </mxCell>
                <mxCell id="lSzMmfJVvKyT_ffGYAdH-64" value="" style="rounded=1;whiteSpace=wrap;html=1;fontSize=6;fontColor=#FF3333;strokeWidth=0.5;opacity=50;" vertex="1" parent="1">
                    <mxGeometry x="58.75" y="229.88" width="130" height="100" as="geometry"/>
                </mxCell>
                <mxCell id="lSzMmfJVvKyT_ffGYAdH-109" value="&lt;span style=&quot;font-size: 6px;&quot;&gt;Module&lt;/span&gt;" style="text;html=1;align=center;verticalAlign=middle;resizable=1;points=[];autosize=1;strokeColor=none;fillColor=none;fontSize=8;movable=1;rotatable=1;deletable=1;editable=1;connectable=1;" vertex="1" parent="1">
                    <mxGeometry x="101" y="310" width="40" height="20" as="geometry"/>
                </mxCell>
                <mxCell id="lSzMmfJVvKyT_ffGYAdH-38" value="" style="rounded=1;whiteSpace=wrap;html=1;arcSize=7;strokeWidth=0.5;opacity=50;" vertex="1" parent="1">
                    <mxGeometry x="251.25" y="230" width="125" height="105.01" as="geometry"/>
                </mxCell>
                <mxCell id="lSzMmfJVvKyT_ffGYAdH-4" value="&lt;b&gt;CityFlow Database&lt;/b&gt;" style="text;html=1;strokeColor=none;fillColor=none;align=center;verticalAlign=middle;whiteSpace=wrap;rounded=0;" vertex="1" parent="1">
                    <mxGeometry x="68.75" y="200" width="110" height="30" as="geometry"/>
                </mxCell>
                <mxCell id="lSzMmfJVvKyT_ffGYAdH-21" value="&lt;b&gt;CityFlow Workstation&lt;/b&gt;" style="text;html=1;strokeColor=none;fillColor=none;align=center;verticalAlign=middle;whiteSpace=wrap;rounded=0;" vertex="1" parent="1">
                    <mxGeometry x="246.25" y="200" width="135" height="30" as="geometry"/>
                </mxCell>
                <mxCell id="lSzMmfJVvKyT_ffGYAdH-22" value="&lt;b&gt;CityFlow Executor&lt;/b&gt;" style="text;html=1;strokeColor=none;fillColor=none;align=center;verticalAlign=middle;whiteSpace=wrap;rounded=0;" vertex="1" parent="1">
                    <mxGeometry x="450" y="199.88" width="110" height="30" as="geometry"/>
                </mxCell>
                <mxCell id="lSzMmfJVvKyT_ffGYAdH-23" value="" style="rounded=1;whiteSpace=wrap;html=1;arcSize=7;strokeWidth=0.5;opacity=50;" vertex="1" parent="1">
                    <mxGeometry x="456.25" y="230" width="100" height="100" as="geometry"/>
                </mxCell>
                <mxCell id="lSzMmfJVvKyT_ffGYAdH-24" value="&lt;font style=&quot;font-size: 8px;&quot;&gt;React&lt;br&gt;Module&lt;/font&gt;" style="rounded=1;whiteSpace=wrap;html=1;" vertex="1" parent="1">
                    <mxGeometry x="318" y="254.38" width="45" height="32.5" as="geometry"/>
                </mxCell>
                <mxCell id="lSzMmfJVvKyT_ffGYAdH-28" value="&lt;font style=&quot;font-size: 8px;&quot;&gt;Python Module&lt;/font&gt;" style="rounded=1;whiteSpace=wrap;html=1;" vertex="1" parent="1">
                    <mxGeometry x="318" y="295" width="45" height="30" as="geometry"/>
                </mxCell>
                <mxCell id="lSzMmfJVvKyT_ffGYAdH-33" value="&lt;font style=&quot;font-size: 6px;&quot;&gt;sqlite database&lt;/font&gt;" style="rounded=1;whiteSpace=wrap;html=1;" vertex="1" parent="1">
                    <mxGeometry x="469.25" y="237" width="77.5" height="20" as="geometry"/>
                </mxCell>
                <mxCell id="lSzMmfJVvKyT_ffGYAdH-34" value="&lt;span style=&quot;color: rgb(0, 0, 0); font-family: Helvetica; font-style: normal; font-variant-ligatures: normal; font-variant-caps: normal; font-weight: 400; letter-spacing: normal; orphans: 2; text-indent: 0px; text-transform: none; widows: 2; word-spacing: 0px; -webkit-text-stroke-width: 0px; text-decoration-thickness: initial; text-decoration-style: initial; text-decoration-color: initial; float: none; display: inline !important;&quot;&gt;&lt;font style=&quot;font-size: 10px;&quot;&gt;Cityflow Runner&lt;/font&gt;&lt;/span&gt;" style="text;whiteSpace=wrap;html=1;align=center;" vertex="1" parent="1">
                    <mxGeometry x="462.25" y="302" width="90" height="20" as="geometry"/>
                </mxCell>
                <mxCell id="lSzMmfJVvKyT_ffGYAdH-35" value="&lt;span style=&quot;color: rgb(0, 0, 0); font-family: Helvetica; font-style: normal; font-variant-ligatures: normal; font-variant-caps: normal; font-weight: 400; letter-spacing: normal; orphans: 2; text-align: center; text-indent: 0px; text-transform: none; widows: 2; word-spacing: 0px; -webkit-text-stroke-width: 0px; text-decoration-thickness: initial; text-decoration-style: initial; text-decoration-color: initial; float: none; display: inline !important;&quot;&gt;&lt;font style=&quot;font-size: 10px;&quot;&gt;Workflow&lt;/font&gt;&lt;/span&gt;" style="text;whiteSpace=wrap;html=1;" vertex="1" parent="1">
                    <mxGeometry x="263.75" y="230" width="70" height="15" as="geometry"/>
                </mxCell>
                <mxCell id="lSzMmfJVvKyT_ffGYAdH-36" value="&lt;font style=&quot;font-size: 8px;&quot;&gt;Annotation Module&lt;/font&gt;" style="rounded=1;whiteSpace=wrap;html=1;" vertex="1" parent="1">
                    <mxGeometry x="264.5" y="254.38" width="45" height="71.25" as="geometry"/>
                </mxCell>
                <mxCell id="lSzMmfJVvKyT_ffGYAdH-39" value="" style="endArrow=openThin;html=1;fontSize=8;entryX=-0.003;entryY=0.31;entryDx=0;entryDy=0;entryPerimeter=0;exitX=0.988;exitY=0.199;exitDx=0;exitDy=0;exitPerimeter=0;endFill=0;" edge="1" parent="1" source="lSzMmfJVvKyT_ffGYAdH-24" target="lSzMmfJVvKyT_ffGYAdH-23">
                    <mxGeometry width="50" height="50" relative="1" as="geometry">
                        <mxPoint x="378.75" y="260" as="sourcePoint"/>
                        <mxPoint x="428.75" y="210" as="targetPoint"/>
                    </mxGeometry>
                </mxCell>
                <mxCell id="lSzMmfJVvKyT_ffGYAdH-41" value="" style="endArrow=openThin;html=1;fontSize=8;entryX=-0.009;entryY=0.801;entryDx=0;entryDy=0;entryPerimeter=0;exitX=0.988;exitY=0.199;exitDx=0;exitDy=0;exitPerimeter=0;endFill=0;" edge="1" parent="1" target="lSzMmfJVvKyT_ffGYAdH-23">
                    <mxGeometry width="50" height="50" relative="1" as="geometry">
                        <mxPoint x="363.00000000000006" y="309.78749999999997" as="sourcePoint"/>
                        <mxPoint x="448.99000000000007" y="309.94" as="targetPoint"/>
                    </mxGeometry>
                </mxCell>
                <mxCell id="lSzMmfJVvKyT_ffGYAdH-42" value="" style="endArrow=openThin;html=1;fontSize=8;entryX=1;entryY=0.75;entryDx=0;entryDy=0;exitX=-0.011;exitY=0.873;exitDx=0;exitDy=0;exitPerimeter=0;endFill=0;" edge="1" parent="1" source="lSzMmfJVvKyT_ffGYAdH-23" target="lSzMmfJVvKyT_ffGYAdH-28">
                    <mxGeometry width="50" height="50" relative="1" as="geometry">
                        <mxPoint x="373" y="316.87749999999994" as="sourcePoint"/>
                        <mxPoint x="458.99" y="317.03" as="targetPoint"/>
                    </mxGeometry>
                </mxCell>
                <mxCell id="lSzMmfJVvKyT_ffGYAdH-43" value="&lt;font style=&quot;font-size: 6px;&quot;&gt;code&lt;/font&gt;" style="text;html=1;align=center;verticalAlign=middle;resizable=0;points=[];autosize=1;strokeColor=none;fillColor=none;fontSize=8;" vertex="1" parent="1">
                    <mxGeometry x="386.25" y="245" width="40" height="20" as="geometry"/>
                </mxCell>
                <mxCell id="lSzMmfJVvKyT_ffGYAdH-44" value="&lt;font style=&quot;font-size: 6px;&quot;&gt;compiled &lt;br&gt;code&lt;/font&gt;" style="text;html=1;align=center;verticalAlign=middle;resizable=0;points=[];autosize=1;strokeColor=none;fillColor=none;fontSize=8;" vertex="1" parent="1">
                    <mxGeometry x="381.25" y="265" width="50" height="30" as="geometry"/>
                </mxCell>
                <mxCell id="lSzMmfJVvKyT_ffGYAdH-45" value="&lt;font style=&quot;font-size: 6px;&quot;&gt;code&lt;/font&gt;" style="text;html=1;align=center;verticalAlign=middle;resizable=0;points=[];autosize=1;strokeColor=none;fillColor=none;fontSize=8;" vertex="1" parent="1">
                    <mxGeometry x="386.25" y="295" width="40" height="20" as="geometry"/>
                </mxCell>
                <mxCell id="lSzMmfJVvKyT_ffGYAdH-46" value="" style="endArrow=openThin;html=1;fontSize=8;exitX=-0.008;exitY=0.383;exitDx=0;exitDy=0;exitPerimeter=0;entryX=0.987;entryY=0.403;entryDx=0;entryDy=0;entryPerimeter=0;endFill=0;" edge="1" parent="1" source="lSzMmfJVvKyT_ffGYAdH-23" target="lSzMmfJVvKyT_ffGYAdH-24">
                    <mxGeometry width="50" height="50" relative="1" as="geometry">
                        <mxPoint x="363.25000000000006" y="269.99749999999995" as="sourcePoint"/>
                        <mxPoint x="358.75" y="270" as="targetPoint"/>
                    </mxGeometry>
                </mxCell>
                <mxCell id="lSzMmfJVvKyT_ffGYAdH-47" value="&lt;font style=&quot;font-size: 6px;&quot;&gt;result&lt;/font&gt;" style="text;html=1;align=center;verticalAlign=middle;resizable=0;points=[];autosize=1;strokeColor=none;fillColor=none;fontSize=8;" vertex="1" parent="1">
                    <mxGeometry x="386.25" y="313.01" width="40" height="20" as="geometry"/>
                </mxCell>
                <mxCell id="lSzMmfJVvKyT_ffGYAdH-48" value="" style="rounded=1;whiteSpace=wrap;html=1;arcSize=7;dashed=1;strokeWidth=0.5;opacity=20;" vertex="1" parent="1">
                    <mxGeometry x="251.25" y="350" width="125" height="35.01" as="geometry"/>
                </mxCell>
                <mxCell id="lSzMmfJVvKyT_ffGYAdH-49" value="&lt;span style=&quot;color: rgb(0, 0, 0); font-family: Helvetica; font-style: normal; font-variant-ligatures: normal; font-variant-caps: normal; font-weight: 400; letter-spacing: normal; orphans: 2; text-align: center; text-indent: 0px; text-transform: none; widows: 2; word-spacing: 0px; -webkit-text-stroke-width: 0px; text-decoration-thickness: initial; text-decoration-style: initial; text-decoration-color: initial; float: none; display: inline !important;&quot;&gt;&lt;font style=&quot;font-size: 10px;&quot;&gt;Workflow&lt;/font&gt;&lt;/span&gt;" style="text;whiteSpace=wrap;html=1;" vertex="1" parent="1">
                    <mxGeometry x="263.75" y="350" width="70" height="15" as="geometry"/>
                </mxCell>
                <mxCell id="lSzMmfJVvKyT_ffGYAdH-50" value="" style="rounded=1;whiteSpace=wrap;html=1;arcSize=7;dashed=1;strokeWidth=0.5;opacity=20;" vertex="1" parent="1">
                    <mxGeometry x="456.25" y="350" width="100" height="35.01" as="geometry"/>
                </mxCell>
                <mxCell id="lSzMmfJVvKyT_ffGYAdH-51" value="&lt;span style=&quot;color: rgb(0, 0, 0); font-family: Helvetica; font-style: normal; font-variant-ligatures: normal; font-variant-caps: normal; font-weight: 400; letter-spacing: normal; orphans: 2; text-indent: 0px; text-transform: none; widows: 2; word-spacing: 0px; -webkit-text-stroke-width: 0px; text-decoration-thickness: initial; text-decoration-style: initial; text-decoration-color: initial; float: none; display: inline !important;&quot;&gt;&lt;font style=&quot;font-size: 10px;&quot;&gt;Cityflow Runner&lt;/font&gt;&lt;/span&gt;" style="text;whiteSpace=wrap;html=1;align=center;" vertex="1" parent="1">
                    <mxGeometry x="461.25" y="355" width="90" height="20" as="geometry"/>
                </mxCell>
                <mxCell id="lSzMmfJVvKyT_ffGYAdH-58" value="" style="endArrow=none;dashed=1;html=1;fontSize=8;shape=link;entryX=-0.026;entryY=0.44;entryDx=0;entryDy=0;entryPerimeter=0;" edge="1" parent="1" target="lSzMmfJVvKyT_ffGYAdH-50">
                    <mxGeometry width="50" height="50" relative="1" as="geometry">
                        <mxPoint x="378.75" y="365" as="sourcePoint"/>
                        <mxPoint x="448.75" y="363" as="targetPoint"/>
                    </mxGeometry>
                </mxCell>
                <mxCell id="lSzMmfJVvKyT_ffGYAdH-60" value="&lt;font style=&quot;font-size: 6px;&quot;&gt;disconnected&lt;/font&gt;" style="text;html=1;align=center;verticalAlign=middle;resizable=0;points=[];autosize=1;strokeColor=none;fillColor=none;fontSize=8;" vertex="1" parent="1">
                    <mxGeometry x="381.25" y="345" width="60" height="20" as="geometry"/>
                </mxCell>
                <mxCell id="lSzMmfJVvKyT_ffGYAdH-61" value="&lt;font style=&quot;font-size: 6px;&quot;&gt;removed&lt;/font&gt;" style="text;html=1;align=center;verticalAlign=middle;resizable=0;points=[];autosize=1;strokeColor=none;fillColor=none;fontSize=8;" vertex="1" parent="1">
                    <mxGeometry x="448.75" y="345" width="50" height="20" as="geometry"/>
                </mxCell>
                <mxCell id="lSzMmfJVvKyT_ffGYAdH-65" value="" style="rounded=1;whiteSpace=wrap;html=1;fontSize=6;fontColor=#FF3333;arcSize=15;strokeWidth=0.5;opacity=50;" vertex="1" parent="1">
                    <mxGeometry x="58.75" y="334.88" width="130" height="60" as="geometry"/>
                </mxCell>
                <mxCell id="lSzMmfJVvKyT_ffGYAdH-68" value="&lt;span style=&quot;color: rgb(0, 0, 0); font-family: Helvetica; font-style: normal; font-variant-ligatures: normal; font-variant-caps: normal; font-weight: 400; letter-spacing: normal; orphans: 2; text-align: center; text-indent: 0px; text-transform: none; widows: 2; word-spacing: 0px; -webkit-text-stroke-width: 0px; text-decoration-thickness: initial; text-decoration-style: initial; text-decoration-color: initial; float: none; display: inline !important;&quot;&gt;&lt;font style=&quot;font-size: 10px;&quot;&gt;Source Files&lt;/font&gt;&lt;/span&gt;" style="text;whiteSpace=wrap;html=1;" vertex="1" parent="1">
                    <mxGeometry x="68.75" y="329.89" width="70" height="15" as="geometry"/>
                </mxCell>
                <mxCell id="lSzMmfJVvKyT_ffGYAdH-69" value="&lt;span style=&quot;color: rgb(0, 0, 0); font-family: Helvetica; font-style: normal; font-variant-ligatures: normal; font-variant-caps: normal; font-weight: 400; letter-spacing: normal; orphans: 2; text-align: center; text-indent: 0px; text-transform: none; widows: 2; word-spacing: 0px; -webkit-text-stroke-width: 0px; text-decoration-thickness: initial; text-decoration-style: initial; text-decoration-color: initial; float: none; display: inline !important;&quot;&gt;&lt;font style=&quot;font-size: 10px;&quot;&gt;Graph Database&lt;/font&gt;&lt;/span&gt;" style="text;whiteSpace=wrap;html=1;" vertex="1" parent="1">
                    <mxGeometry x="68.75" y="229.88" width="80" height="15" as="geometry"/>
                </mxCell>
                <mxCell id="lSzMmfJVvKyT_ffGYAdH-70" value="" style="endArrow=classic;html=1;fontSize=6;fontColor=#FF3333;shape=link;entryX=-0.007;entryY=0.103;entryDx=0;entryDy=0;entryPerimeter=0;exitX=0.999;exitY=0.099;exitDx=0;exitDy=0;exitPerimeter=0;" edge="1" parent="1" source="lSzMmfJVvKyT_ffGYAdH-38" target="lSzMmfJVvKyT_ffGYAdH-23">
                    <mxGeometry width="50" height="50" relative="1" as="geometry">
                        <mxPoint x="378.75" y="240" as="sourcePoint"/>
                        <mxPoint x="428.75" y="200" as="targetPoint"/>
                    </mxGeometry>
                </mxCell>
                <mxCell id="lSzMmfJVvKyT_ffGYAdH-71" value="&lt;font style=&quot;font-size: 6px;&quot;&gt;keep alive&lt;/font&gt;" style="text;html=1;align=center;verticalAlign=middle;resizable=0;points=[];autosize=1;strokeColor=none;fillColor=none;fontSize=8;" vertex="1" parent="1">
                    <mxGeometry x="386.25" y="220" width="50" height="20" as="geometry"/>
                </mxCell>
                <mxCell id="lSzMmfJVvKyT_ffGYAdH-72" value="&lt;font style=&quot;font-size: 6px;&quot;&gt;closed&lt;/font&gt;" style="text;html=1;align=center;verticalAlign=middle;resizable=0;points=[];autosize=1;strokeColor=none;fillColor=none;fontSize=8;" vertex="1" parent="1">
                    <mxGeometry x="336.25" y="345.01" width="40" height="20" as="geometry"/>
                </mxCell>
                <mxCell id="lSzMmfJVvKyT_ffGYAdH-78" value="&lt;font style=&quot;font-size: 6px;&quot;&gt;python environment&lt;/font&gt;" style="rounded=1;whiteSpace=wrap;html=1;" vertex="1" parent="1">
                    <mxGeometry x="469.25" y="261" width="77.5" height="20" as="geometry"/>
                </mxCell>
                <mxCell id="lSzMmfJVvKyT_ffGYAdH-79" value="&lt;font style=&quot;font-size: 6px;&quot;&gt;node environment&lt;/font&gt;" style="rounded=1;whiteSpace=wrap;html=1;" vertex="1" parent="1">
                    <mxGeometry x="469.25" y="284.88" width="77.5" height="20" as="geometry"/>
                </mxCell>
                <mxCell id="lSzMmfJVvKyT_ffGYAdH-80" value="" style="endArrow=openThin;html=1;fontSize=6;fontColor=#FF3333;entryX=1;entryY=0.25;entryDx=0;entryDy=0;exitX=0;exitY=0.232;exitDx=0;exitDy=0;exitPerimeter=0;endFill=0;" edge="1" parent="1" source="lSzMmfJVvKyT_ffGYAdH-38" target="lSzMmfJVvKyT_ffGYAdH-64">
                    <mxGeometry width="50" height="50" relative="1" as="geometry">
                        <mxPoint x="248.75" y="255" as="sourcePoint"/>
                        <mxPoint x="298.75" y="230" as="targetPoint"/>
                    </mxGeometry>
                </mxCell>
                <mxCell id="lSzMmfJVvKyT_ffGYAdH-81" value="&lt;span style=&quot;font-size: 6px;&quot;&gt;node ID&lt;/span&gt;" style="text;html=1;align=center;verticalAlign=middle;resizable=0;points=[];autosize=1;strokeColor=none;fillColor=none;fontSize=8;" vertex="1" parent="1">
                    <mxGeometry x="198.75" y="237" width="40" height="20" as="geometry"/>
                </mxCell>
                <mxCell id="lSzMmfJVvKyT_ffGYAdH-83" value="" style="endArrow=openThin;html=1;fontSize=8;exitX=0.999;exitY=0.337;exitDx=0;exitDy=0;exitPerimeter=0;entryX=0.007;entryY=0.313;entryDx=0;entryDy=0;entryPerimeter=0;endFill=0;" edge="1" parent="1" source="lSzMmfJVvKyT_ffGYAdH-64" target="lSzMmfJVvKyT_ffGYAdH-38">
                    <mxGeometry width="50" height="50" relative="1" as="geometry">
                        <mxPoint x="198.75" y="269" as="sourcePoint"/>
                        <mxPoint x="248.75" y="264" as="targetPoint"/>
                    </mxGeometry>
                </mxCell>
                <mxCell id="lSzMmfJVvKyT_ffGYAdH-84" value="&lt;span style=&quot;font-size: 6px;&quot;&gt;node data&lt;/span&gt;" style="text;html=1;align=center;verticalAlign=middle;resizable=0;points=[];autosize=1;strokeColor=none;fillColor=none;fontSize=8;" vertex="1" parent="1">
                    <mxGeometry x="193.75" y="260.63" width="50" height="20" as="geometry"/>
                </mxCell>
                <mxCell id="lSzMmfJVvKyT_ffGYAdH-86" value="" style="endArrow=openThin;html=1;fontSize=6;fontColor=#FF3333;entryX=0.996;entryY=0.701;entryDx=0;entryDy=0;exitX=-0.003;exitY=0.663;exitDx=0;exitDy=0;exitPerimeter=0;entryPerimeter=0;endFill=0;" edge="1" parent="1" source="lSzMmfJVvKyT_ffGYAdH-38" target="lSzMmfJVvKyT_ffGYAdH-64">
                    <mxGeometry width="50" height="50" relative="1" as="geometry">
                        <mxPoint x="251.25" y="297.99231999999995" as="sourcePoint"/>
                        <mxPoint x="198.75" y="298.63" as="targetPoint"/>
                    </mxGeometry>
                </mxCell>
                <mxCell id="lSzMmfJVvKyT_ffGYAdH-88" value="" style="endArrow=openThin;html=1;fontSize=6;fontColor=#FF3333;entryX=1.044;entryY=1;entryDx=0;entryDy=0;entryPerimeter=0;exitX=1.001;exitY=0.805;exitDx=0;exitDy=0;exitPerimeter=0;endFill=0;" edge="1" parent="1" source="lSzMmfJVvKyT_ffGYAdH-64">
                    <mxGeometry width="50" height="50" relative="1" as="geometry">
                        <mxPoint x="198.75" y="320" as="sourcePoint"/>
                        <mxPoint x="250.95000000000005" y="309.88" as="targetPoint"/>
                    </mxGeometry>
                </mxCell>
                <mxCell id="lSzMmfJVvKyT_ffGYAdH-91" value="&lt;span style=&quot;font-size: 6px;&quot;&gt;graph data&lt;/span&gt;" style="text;html=1;align=center;verticalAlign=middle;resizable=0;points=[];autosize=1;strokeColor=none;fillColor=none;fontSize=8;" vertex="1" parent="1">
                    <mxGeometry x="193.75" y="305" width="50" height="20" as="geometry"/>
                </mxCell>
                <mxCell id="lSzMmfJVvKyT_ffGYAdH-92" value="&lt;span style=&quot;font-size: 6px;&quot;&gt;semantic &lt;br&gt;search&lt;/span&gt;" style="text;html=1;align=center;verticalAlign=middle;resizable=0;points=[];autosize=1;strokeColor=none;fillColor=none;fontSize=8;" vertex="1" parent="1">
                    <mxGeometry x="193.75" y="274.25" width="50" height="30" as="geometry"/>
                </mxCell>
                <mxCell id="lSzMmfJVvKyT_ffGYAdH-93" value="" style="endArrow=openThin;html=1;fontSize=6;fontColor=#FF3333;exitX=1;exitY=0.75;exitDx=0;exitDy=0;entryX=0.023;entryY=1.002;entryDx=0;entryDy=0;entryPerimeter=0;endFill=0;" edge="1" parent="1" source="lSzMmfJVvKyT_ffGYAdH-65" target="lSzMmfJVvKyT_ffGYAdH-38">
                    <mxGeometry width="50" height="50" relative="1" as="geometry">
                        <mxPoint x="198.75" y="380" as="sourcePoint"/>
                        <mxPoint x="248.75" y="330" as="targetPoint"/>
                    </mxGeometry>
                </mxCell>
                <mxCell id="lSzMmfJVvKyT_ffGYAdH-94" value="&lt;span style=&quot;font-size: 6px;&quot;&gt;file url&lt;/span&gt;" style="text;html=1;align=center;verticalAlign=middle;resizable=0;points=[];autosize=1;strokeColor=none;fillColor=none;fontSize=8;rotation=-33;" vertex="1" parent="1">
                    <mxGeometry x="193.75" y="335.01" width="40" height="20" as="geometry"/>
                </mxCell>
                <mxCell id="lSzMmfJVvKyT_ffGYAdH-95" value="" style="endArrow=none;html=1;fontSize=6;fontColor=#FF3333;exitX=1.007;exitY=0.556;exitDx=0;exitDy=0;startArrow=openThin;startFill=0;endFill=0;exitPerimeter=0;entryX=-0.002;entryY=0.921;entryDx=0;entryDy=0;entryPerimeter=0;" edge="1" parent="1" source="lSzMmfJVvKyT_ffGYAdH-65" target="lSzMmfJVvKyT_ffGYAdH-38">
                    <mxGeometry width="50" height="50" relative="1" as="geometry">
                        <mxPoint x="186.06" y="370.29" as="sourcePoint"/>
                        <mxPoint x="248.75" y="330" as="targetPoint"/>
                    </mxGeometry>
                </mxCell>
                <mxCell id="lSzMmfJVvKyT_ffGYAdH-96" value="&lt;span style=&quot;font-size: 6px;&quot;&gt;file content&lt;/span&gt;" style="text;html=1;align=center;verticalAlign=middle;resizable=0;points=[];autosize=1;strokeColor=none;fillColor=none;fontSize=8;rotation=-33;" vertex="1" parent="1">
                    <mxGeometry x="193.75" y="354.88" width="50" height="20" as="geometry"/>
                </mxCell>
                <mxCell id="lSzMmfJVvKyT_ffGYAdH-97" value="" style="ellipse;whiteSpace=wrap;html=1;aspect=fixed;fontSize=6;fontColor=#FF3333;" vertex="1" parent="1">
                    <mxGeometry x="117.5" y="265.88" width="12.5" height="12.5" as="geometry"/>
                </mxCell>
                <mxCell id="lSzMmfJVvKyT_ffGYAdH-98" value="" style="ellipse;whiteSpace=wrap;html=1;aspect=fixed;fontSize=6;fontColor=#FF3333;" vertex="1" parent="1">
                    <mxGeometry x="88.75" y="289.13" width="8.62" height="8.62" as="geometry"/>
                </mxCell>
                <mxCell id="lSzMmfJVvKyT_ffGYAdH-99" value="" style="ellipse;whiteSpace=wrap;html=1;aspect=fixed;fontSize=6;fontColor=#FF3333;" vertex="1" parent="1">
                    <mxGeometry x="141.75" y="295.63" width="7" height="7" as="geometry"/>
                </mxCell>
                <mxCell id="lSzMmfJVvKyT_ffGYAdH-102" value="&lt;span style=&quot;font-size: 6px;&quot;&gt;Author&lt;/span&gt;" style="text;html=1;align=center;verticalAlign=middle;resizable=0;points=[];autosize=1;strokeColor=none;fillColor=none;fontSize=8;" vertex="1" parent="1">
                    <mxGeometry x="117.5" y="252.13" width="40" height="20" as="geometry"/>
                </mxCell>
                <mxCell id="lSzMmfJVvKyT_ffGYAdH-103" value="&lt;span style=&quot;font-size: 6px;&quot;&gt;Workflow&lt;/span&gt;" style="text;html=1;align=center;verticalAlign=middle;resizable=0;points=[];autosize=1;strokeColor=none;fillColor=none;fontSize=8;" vertex="1" parent="1">
                    <mxGeometry x="67.5" y="272.75" width="50" height="20" as="geometry"/>
                </mxCell>
                <mxCell id="lSzMmfJVvKyT_ffGYAdH-104" value="&lt;span style=&quot;font-size: 6px;&quot;&gt;Module&lt;/span&gt;" style="text;html=1;align=center;verticalAlign=middle;resizable=0;points=[];autosize=1;strokeColor=none;fillColor=none;fontSize=8;" vertex="1" parent="1">
                    <mxGeometry x="138.75" y="302" width="40" height="20" as="geometry"/>
                </mxCell>
                <mxCell id="lSzMmfJVvKyT_ffGYAdH-105" value="&lt;font style=&quot;font-size: 4px;&quot; color=&quot;#000000&quot;&gt;embeddings&lt;/font&gt;" style="rounded=0;whiteSpace=wrap;html=1;fontSize=6;fontColor=#FF3333;strokeWidth=0.5;fillColor=none;" vertex="1" parent="1">
                    <mxGeometry x="68.75" y="299.75" width="26.75" height="8" as="geometry"/>
                </mxCell>
                <mxCell id="lSzMmfJVvKyT_ffGYAdH-106" value="&lt;font style=&quot;font-size: 4px;&quot; color=&quot;#000000&quot;&gt;embeddings&lt;/font&gt;" style="rounded=0;whiteSpace=wrap;html=1;fontSize=6;fontColor=#FF3333;strokeWidth=0.5;fillColor=none;" vertex="1" parent="1">
                    <mxGeometry x="131.88" y="268.13" width="26.75" height="8" as="geometry"/>
                </mxCell>
                <mxCell id="lSzMmfJVvKyT_ffGYAdH-107" value="&lt;font style=&quot;font-size: 4px;&quot; color=&quot;#000000&quot;&gt;embeddings&lt;/font&gt;" style="rounded=0;whiteSpace=wrap;html=1;fontSize=6;fontColor=#FF3333;strokeWidth=0.5;fillColor=none;" vertex="1" parent="1">
                    <mxGeometry x="152" y="295.63" width="26.75" height="8" as="geometry"/>
                </mxCell>
                <mxCell id="lSzMmfJVvKyT_ffGYAdH-108" value="" style="ellipse;whiteSpace=wrap;html=1;aspect=fixed;fontSize=6;fontColor=#FF3333;" vertex="1" parent="1">
                    <mxGeometry x="117.5" y="307.75" width="7" height="7" as="geometry"/>
                </mxCell>
                <mxCell id="lSzMmfJVvKyT_ffGYAdH-110" value="" style="endArrow=none;html=1;fontSize=4;fontColor=#000000;entryX=0;entryY=1;entryDx=0;entryDy=0;exitX=0.586;exitY=0.948;exitDx=0;exitDy=0;exitPerimeter=0;" edge="1" parent="1" source="lSzMmfJVvKyT_ffGYAdH-103" target="lSzMmfJVvKyT_ffGYAdH-97">
                    <mxGeometry width="50" height="50" relative="1" as="geometry">
                        <mxPoint x="98.75" y="327.75" as="sourcePoint"/>
                        <mxPoint x="148.75" y="277.75" as="targetPoint"/>
                    </mxGeometry>
                </mxCell>
                <mxCell id="lSzMmfJVvKyT_ffGYAdH-111" value="" style="endArrow=none;html=1;fontSize=4;fontColor=#000000;exitX=0.441;exitY=0.075;exitDx=0;exitDy=0;exitPerimeter=0;entryX=0.964;entryY=0.675;entryDx=0;entryDy=0;entryPerimeter=0;" edge="1" parent="1" target="lSzMmfJVvKyT_ffGYAdH-98">
                    <mxGeometry width="50" height="50" relative="1" as="geometry">
                        <mxPoint x="118.63999999999999" y="309.25" as="sourcePoint"/>
                        <mxPoint x="98.75" y="297.75" as="targetPoint"/>
                    </mxGeometry>
                </mxCell>
                <mxCell id="lSzMmfJVvKyT_ffGYAdH-112" value="" style="endArrow=none;html=1;fontSize=4;fontColor=#000000;entryX=0.5;entryY=1;entryDx=0;entryDy=0;" edge="1" parent="1" target="lSzMmfJVvKyT_ffGYAdH-97">
                    <mxGeometry width="50" height="50" relative="1" as="geometry">
                        <mxPoint x="121.69850139700281" y="307.75" as="sourcePoint"/>
                        <mxPoint x="58.75" y="287.75" as="targetPoint"/>
                    </mxGeometry>
                </mxCell>
                <mxCell id="lSzMmfJVvKyT_ffGYAdH-113" value="" style="endArrow=none;html=1;fontSize=4;fontColor=#000000;entryX=1;entryY=1;entryDx=0;entryDy=0;exitX=0.22;exitY=0.012;exitDx=0;exitDy=0;exitPerimeter=0;" edge="1" parent="1" source="lSzMmfJVvKyT_ffGYAdH-99" target="lSzMmfJVvKyT_ffGYAdH-97">
                    <mxGeometry width="50" height="50" relative="1" as="geometry">
                        <mxPoint x="-11.25" y="347.75" as="sourcePoint"/>
                        <mxPoint x="38.75" y="297.75" as="targetPoint"/>
                    </mxGeometry>
                </mxCell>
                <mxCell id="lSzMmfJVvKyT_ffGYAdH-115" value="" style="endArrow=none;html=1;fontSize=4;fontColor=#000000;exitX=0.037;exitY=0.673;exitDx=0;exitDy=0;exitPerimeter=0;entryX=0.898;entryY=0.293;entryDx=0;entryDy=0;entryPerimeter=0;" edge="1" parent="1" source="lSzMmfJVvKyT_ffGYAdH-99" target="lSzMmfJVvKyT_ffGYAdH-108">
                    <mxGeometry width="50" height="50" relative="1" as="geometry">
                        <mxPoint x="138.75" y="297.75" as="sourcePoint"/>
                        <mxPoint x="128.75" y="307.75" as="targetPoint"/>
                    </mxGeometry>
                </mxCell>
                <mxCell id="lSzMmfJVvKyT_ffGYAdH-116" value="File" style="shape=note;size=6;whiteSpace=wrap;html=1;strokeWidth=0.5;fontSize=4;fontColor=#000000;" vertex="1" parent="1">
                    <mxGeometry x="75.5" y="355.01" width="20" height="30" as="geometry"/>
                </mxCell>
                <mxCell id="lSzMmfJVvKyT_ffGYAdH-117" value="File" style="shape=note;size=6;whiteSpace=wrap;html=1;strokeWidth=0.5;fontSize=4;fontColor=#000000;" vertex="1" parent="1">
                    <mxGeometry x="101" y="355.01" width="20" height="30" as="geometry"/>
                </mxCell>
                <mxCell id="lSzMmfJVvKyT_ffGYAdH-118" value="File" style="shape=note;size=6;whiteSpace=wrap;html=1;strokeWidth=0.5;fontSize=4;fontColor=#000000;" vertex="1" parent="1">
                    <mxGeometry x="127.5" y="355.01" width="20" height="30" as="geometry"/>
                </mxCell>
                <mxCell id="lSzMmfJVvKyT_ffGYAdH-119" value="File" style="shape=note;size=6;whiteSpace=wrap;html=1;strokeWidth=0.5;fontSize=4;fontColor=#000000;" vertex="1" parent="1">
                    <mxGeometry x="152" y="355.01" width="20" height="30" as="geometry"/>
                </mxCell>
                <mxCell id="lSzMmfJVvKyT_ffGYAdH-125" value="" style="rounded=1;whiteSpace=wrap;html=1;labelBackgroundColor=none;strokeWidth=0.5;fontSize=4;fontColor=#000000;fillColor=none;arcSize=9;" vertex="1" parent="1">
                    <mxGeometry x="27.5" y="441" width="570" height="100" as="geometry"/>
                </mxCell>
                <mxCell id="lSzMmfJVvKyT_ffGYAdH-126" value="&lt;b&gt;&lt;font style=&quot;font-size: 14px;&quot;&gt;CityFlow Platform&lt;/font&gt;&lt;/b&gt;" style="text;html=1;strokeColor=none;fillColor=none;align=center;verticalAlign=middle;whiteSpace=wrap;rounded=0;labelBackgroundColor=none;strokeWidth=0.5;fontSize=4;fontColor=#000000;" vertex="1" parent="1">
                    <mxGeometry x="35.75" y="169.88" width="158" height="30" as="geometry"/>
                </mxCell>
                <mxCell id="lSzMmfJVvKyT_ffGYAdH-127" value="&lt;b&gt;&lt;font style=&quot;font-size: 14px;&quot;&gt;CityFlow Community&lt;/font&gt;&lt;/b&gt;" style="text;html=1;strokeColor=none;fillColor=none;align=center;verticalAlign=middle;whiteSpace=wrap;rounded=0;labelBackgroundColor=none;strokeWidth=0.5;fontSize=4;fontColor=#000000;" vertex="1" parent="1">
                    <mxGeometry x="35.75" y="440" width="158" height="30" as="geometry"/>
                </mxCell>
                <mxCell id="lSzMmfJVvKyT_ffGYAdH-128" value="" style="rounded=1;whiteSpace=wrap;html=1;labelBackgroundColor=none;strokeWidth=0.5;fontSize=14;fillColor=#e1d5e7;strokeColor=#9673a6;opacity=50;" vertex="1" parent="1">
                    <mxGeometry x="42.25" y="470" width="157.75" height="60" as="geometry"/>
                </mxCell>
                <mxCell id="lSzMmfJVvKyT_ffGYAdH-129" value="" style="rounded=1;whiteSpace=wrap;html=1;labelBackgroundColor=none;strokeWidth=0.5;fontSize=14;fillColor=#e1d5e7;strokeColor=#9673a6;opacity=50;" vertex="1" parent="1">
                    <mxGeometry x="240" y="470" width="150" height="60" as="geometry"/>
                </mxCell>
                <mxCell id="lSzMmfJVvKyT_ffGYAdH-131" value="" style="rounded=1;whiteSpace=wrap;html=1;labelBackgroundColor=none;strokeWidth=0.5;fontSize=14;fillColor=#e1d5e7;strokeColor=#9673a6;opacity=50;" vertex="1" parent="1">
                    <mxGeometry x="430" y="470" width="150" height="60" as="geometry"/>
                </mxCell>
                <mxCell id="lSzMmfJVvKyT_ffGYAdH-134" value="&lt;span style=&quot;color: rgb(0, 0, 0); font-family: Helvetica; font-style: normal; font-variant-ligatures: normal; font-variant-caps: normal; font-weight: 400; letter-spacing: normal; orphans: 2; text-indent: 0px; text-transform: none; widows: 2; word-spacing: 0px; -webkit-text-stroke-width: 0px; text-decoration-thickness: initial; text-decoration-style: initial; text-decoration-color: initial; float: none; display: inline !important;&quot;&gt;&lt;font style=&quot;font-size: 10px;&quot;&gt;Community Workflows&lt;/font&gt;&lt;/span&gt;" style="text;whiteSpace=wrap;html=1;align=center;" vertex="1" parent="1">
                    <mxGeometry x="75.5" y="478.75" width="88.12" height="42.5" as="geometry"/>
                </mxCell>
                <mxCell id="lSzMmfJVvKyT_ffGYAdH-136" value="&lt;span style=&quot;color: rgb(0, 0, 0); font-family: Helvetica; font-style: normal; font-variant-ligatures: normal; font-variant-caps: normal; font-weight: 400; letter-spacing: normal; orphans: 2; text-indent: 0px; text-transform: none; widows: 2; word-spacing: 0px; -webkit-text-stroke-width: 0px; text-decoration-thickness: initial; text-decoration-style: initial; text-decoration-color: initial; float: none; display: inline !important;&quot;&gt;&lt;font style=&quot;font-size: 10px;&quot;&gt;Community Workflows&lt;/font&gt;&lt;/span&gt;" style="text;whiteSpace=wrap;html=1;align=center;" vertex="1" parent="1">
                    <mxGeometry x="265.94" y="478.75" width="88.12" height="42.5" as="geometry"/>
                </mxCell>
                <mxCell id="lSzMmfJVvKyT_ffGYAdH-138" value="&lt;span style=&quot;color: rgb(0, 0, 0); font-family: Helvetica; font-style: normal; font-variant-ligatures: normal; font-variant-caps: normal; font-weight: 400; letter-spacing: normal; orphans: 2; text-indent: 0px; text-transform: none; widows: 2; word-spacing: 0px; -webkit-text-stroke-width: 0px; text-decoration-thickness: initial; text-decoration-style: initial; text-decoration-color: initial; float: none; display: inline !important;&quot;&gt;&lt;font style=&quot;font-size: 10px;&quot;&gt;Community Workflows&lt;/font&gt;&lt;/span&gt;" style="text;whiteSpace=wrap;html=1;align=center;" vertex="1" parent="1">
                    <mxGeometry x="458.63" y="478.75" width="88.12" height="42.5" as="geometry"/>
                </mxCell>
                <mxCell id="lSzMmfJVvKyT_ffGYAdH-139" value="" style="endArrow=openThin;html=1;fontSize=10;fontColor=#000000;entryX=0.467;entryY=0.007;entryDx=0;entryDy=0;entryPerimeter=0;endFill=0;dashed=1;" edge="1" parent="1" target="lSzMmfJVvKyT_ffGYAdH-129">
                    <mxGeometry width="50" height="50" relative="1" as="geometry">
                        <mxPoint x="310" y="410" as="sourcePoint"/>
                        <mxPoint x="360" y="360" as="targetPoint"/>
                    </mxGeometry>
                </mxCell>
                <mxCell id="lSzMmfJVvKyT_ffGYAdH-140" value="" style="endArrow=openThin;html=1;fontSize=10;fontColor=#000000;entryX=0.524;entryY=0.999;entryDx=0;entryDy=0;entryPerimeter=0;exitX=0.513;exitY=0.001;exitDx=0;exitDy=0;exitPerimeter=0;endFill=0;dashed=1;" edge="1" parent="1" source="lSzMmfJVvKyT_ffGYAdH-129" target="lSzMmfJVvKyT_ffGYAdH-121">
                    <mxGeometry width="50" height="50" relative="1" as="geometry">
                        <mxPoint x="320" y="420" as="sourcePoint"/>
                        <mxPoint x="320.05000000000007" y="480.4200000000001" as="targetPoint"/>
                    </mxGeometry>
                </mxCell>
                <mxCell id="lSzMmfJVvKyT_ffGYAdH-141" value="&lt;font size=&quot;1&quot; style=&quot;&quot;&gt;&lt;b style=&quot;background-color: rgb(255, 255, 255); font-size: 14px;&quot;&gt;Share &amp;amp; Learn&lt;/b&gt;&lt;/font&gt;" style="text;html=1;align=center;verticalAlign=middle;resizable=0;points=[];autosize=1;strokeColor=none;fillColor=none;fontSize=8;" vertex="1" parent="1">
                    <mxGeometry x="251.25" y="418" width="120" height="30" as="geometry"/>
                </mxCell>
            </root>
        </mxGraphModel>
    </diagram>
    <diagram id="zSwOkCgLSsVxC-KGnxdu" name="Page-2">
        <mxGraphModel grid="1" page="1" gridSize="10" guides="1" tooltips="1" connect="1" arrows="1" fold="1" pageScale="1" pageWidth="850" pageHeight="1100" math="0" shadow="0">
            <root>
                <mxCell id="0"/>
                <mxCell id="1" parent="0"/>
            </root>
        </mxGraphModel>
    </diagram>
</mxfile>